<svg id="Layer_1" enable-background="new 0 0 512 512" height="512" viewBox="0 0 512 512" width="512" xmlns="http://www.w3.org/2000/svg"><path fill="#48484a" d="m256 512c-68.38 0-132.667-26.629-181.02-74.98-48.351-48.353-74.98-112.64-74.98-181.02s26.629-132.667 74.98-181.02c48.353-48.351 112.64-74.98 181.02-74.98s132.667 26.629 181.02 74.98c48.351 48.353 74.98 112.64 74.98 181.02s-26.629 132.667-74.98 181.02c-48.353 48.351-112.64 74.98-181.02 74.98zm0-472c-119.103 0-216 96.897-216 216s96.897 216 216 216 216-96.897 216-216-96.897-216-216-216zm83 76h-36c-11.046 0-20 8.954-20 20s8.954 20 20 20h26.385l-35.392 34.724c-7.885 7.736-8.005 20.398-.27 28.283 3.917 3.992 9.095 5.993 14.277 5.993 5.055 0 10.113-1.905 14.006-5.724l36.994-36.295v30.019c0 11.046 8.954 20 20 20s20-8.954 20-20v-37c0-33.084-26.916-60-60-60zm-119.423 179.307c-7.563-8.051-20.219-8.446-28.271-.884l-13.634 12.807c-22.376-9.869-49.51-5.667-67.815 12.638-7.81 7.811-7.81 20.474 0 28.284 7.811 7.811 20.475 7.811 28.285 0 8.188-8.189 21.517-8.191 29.705 0 8.189 8.189 8.189 21.516 0 29.706-7.811 7.811-7.81 20.474.001 28.284 3.905 3.905 9.023 5.857 14.142 5.857s10.237-1.953 14.143-5.858c19.337-19.338 22.951-48.535 10.846-71.56l11.714-11.004c8.051-7.563 8.447-20.22.884-28.27zm11.423-39.307c0 13.807 11.193 25 25 25s25-11.193 25-25-11.193-25-25-25-25 11.193-25 25z"/></svg>